<mxfile host="app.diagrams.net" modified="2021-10-15T10:37:51.357Z" agent="5.0 (Windows NT 10.0; Win64; x64) AppleWebKit/537.36 (KHTML, like Gecko) Chrome/89.0.4389.128 Safari/537.36 OPR/75.0.3969.279" etag="LQawkeiKq4vkJuNfmj63" version="15.5.2" type="github">
  <diagram name="Page-1" id="58cdce13-f638-feb5-8d6f-7d28b1aa9fa0">
    <mxGraphModel dx="1141" dy="734" grid="1" gridSize="10" guides="1" tooltips="1" connect="1" arrows="1" fold="1" page="1" pageScale="1" pageWidth="1100" pageHeight="850" background="none" math="0" shadow="0">
      <root>
        <mxCell id="0" />
        <mxCell id="1" parent="0" />
        <mxCell id="382b91b5511bd0f7-1" value="" style="ellipse;html=1;shape=startState;fillColor=#000000;strokeColor=#ff0000;rounded=1;shadow=0;comic=0;labelBackgroundColor=none;fontFamily=Verdana;fontSize=12;fontColor=#000000;align=center;direction=south;" parent="1" vertex="1">
          <mxGeometry x="130" y="135" width="30" height="30" as="geometry" />
        </mxCell>
        <mxCell id="382b91b5511bd0f7-6" value="Create Feedback" style="rounded=1;whiteSpace=wrap;html=1;arcSize=24;fillColor=#ffffc0;strokeColor=#ff0000;shadow=0;comic=0;labelBackgroundColor=none;fontFamily=Verdana;fontSize=12;fontColor=#000000;align=center;" parent="1" vertex="1">
          <mxGeometry x="230" y="120" width="120" height="60" as="geometry" />
        </mxCell>
        <mxCell id="382b91b5511bd0f7-9" value="In Prepareration" style="rounded=1;whiteSpace=wrap;html=1;arcSize=24;fillColor=#ffffc0;strokeColor=#ff0000;shadow=0;comic=0;labelBackgroundColor=none;fontFamily=Verdana;fontSize=12;fontColor=#000000;align=center;" parent="1" vertex="1">
          <mxGeometry x="230" y="320" width="120" height="60" as="geometry" />
        </mxCell>
        <mxCell id="2a3bc250acf0617d-9" style="edgeStyle=orthogonalEdgeStyle;html=1;labelBackgroundColor=none;endArrow=open;endSize=8;strokeColor=#ff0000;fontFamily=Verdana;fontSize=12;align=left;" parent="1" source="382b91b5511bd0f7-1" target="382b91b5511bd0f7-6" edge="1">
          <mxGeometry relative="1" as="geometry" />
        </mxCell>
        <mxCell id="RAm_5Ladcyj3pS0U4x7B-3" style="edgeStyle=orthogonalEdgeStyle;rounded=0;orthogonalLoop=1;jettySize=auto;html=1;exitX=0;exitY=1;exitDx=0;exitDy=0;entryX=0.5;entryY=0.667;entryDx=0;entryDy=0;entryPerimeter=0;" edge="1" parent="1" source="382b91b5511bd0f7-1" target="382b91b5511bd0f7-1">
          <mxGeometry relative="1" as="geometry" />
        </mxCell>
        <mxCell id="RAm_5Ladcyj3pS0U4x7B-9" style="edgeStyle=orthogonalEdgeStyle;html=1;labelBackgroundColor=none;endArrow=open;endSize=8;strokeColor=#ff0000;fontFamily=Verdana;fontSize=12;align=left;exitX=0.5;exitY=1;exitDx=0;exitDy=0;entryX=0.5;entryY=0;entryDx=0;entryDy=0;" edge="1" parent="1" source="382b91b5511bd0f7-6" target="382b91b5511bd0f7-9">
          <mxGeometry relative="1" as="geometry">
            <mxPoint x="500" y="210" as="sourcePoint" />
            <mxPoint x="280" y="310" as="targetPoint" />
            <Array as="points" />
          </mxGeometry>
        </mxCell>
        <mxCell id="RAm_5Ladcyj3pS0U4x7B-11" style="edgeStyle=orthogonalEdgeStyle;html=1;labelBackgroundColor=none;endArrow=open;endSize=8;strokeColor=#ff0000;fontFamily=Verdana;fontSize=12;align=left;exitX=0.5;exitY=1;exitDx=0;exitDy=0;entryX=0.5;entryY=0;entryDx=0;entryDy=0;" edge="1" parent="1" source="382b91b5511bd0f7-9" target="RAm_5Ladcyj3pS0U4x7B-12">
          <mxGeometry relative="1" as="geometry">
            <mxPoint x="330" y="440" as="sourcePoint" />
            <mxPoint x="290" y="500" as="targetPoint" />
            <Array as="points" />
          </mxGeometry>
        </mxCell>
        <mxCell id="RAm_5Ladcyj3pS0U4x7B-13" value="Choose Star Form" style="edgeLabel;html=1;align=center;verticalAlign=middle;resizable=0;points=[];fontFamily=Times New Roman;fontStyle=1;fontSize=13;" vertex="1" connectable="0" parent="RAm_5Ladcyj3pS0U4x7B-11">
          <mxGeometry x="-0.1833" y="-3" relative="1" as="geometry">
            <mxPoint as="offset" />
          </mxGeometry>
        </mxCell>
        <mxCell id="RAm_5Ladcyj3pS0U4x7B-12" value="In Star Form" style="rounded=1;whiteSpace=wrap;html=1;arcSize=24;fillColor=#ffffc0;strokeColor=#ff0000;shadow=0;comic=0;labelBackgroundColor=none;fontFamily=Verdana;fontSize=12;fontColor=#000000;align=center;" vertex="1" parent="1">
          <mxGeometry x="230" y="540" width="120" height="60" as="geometry" />
        </mxCell>
        <mxCell id="RAm_5Ladcyj3pS0U4x7B-14" style="edgeStyle=orthogonalEdgeStyle;html=1;labelBackgroundColor=none;endArrow=open;endSize=8;strokeColor=#ff0000;fontFamily=Verdana;fontSize=12;align=left;exitX=1;exitY=0.5;exitDx=0;exitDy=0;entryX=0;entryY=0.5;entryDx=0;entryDy=0;" edge="1" parent="1" source="382b91b5511bd0f7-9" target="RAm_5Ladcyj3pS0U4x7B-16">
          <mxGeometry relative="1" as="geometry">
            <mxPoint x="300" y="390" as="sourcePoint" />
            <mxPoint x="490" y="350" as="targetPoint" />
            <Array as="points">
              <mxPoint x="350" y="220" />
            </Array>
          </mxGeometry>
        </mxCell>
        <mxCell id="RAm_5Ladcyj3pS0U4x7B-15" value="Choose Contents Form" style="edgeLabel;html=1;align=center;verticalAlign=middle;resizable=0;points=[];fontFamily=Times New Roman;fontStyle=1;fontSize=13;" vertex="1" connectable="0" parent="RAm_5Ladcyj3pS0U4x7B-14">
          <mxGeometry x="-0.1833" y="-3" relative="1" as="geometry">
            <mxPoint x="67" as="offset" />
          </mxGeometry>
        </mxCell>
        <mxCell id="RAm_5Ladcyj3pS0U4x7B-16" value="In Contents Form" style="rounded=1;whiteSpace=wrap;html=1;arcSize=24;fillColor=#ffffc0;strokeColor=#ff0000;shadow=0;comic=0;labelBackgroundColor=none;fontFamily=Verdana;fontSize=12;fontColor=#000000;align=center;" vertex="1" parent="1">
          <mxGeometry x="630" y="190" width="120" height="60" as="geometry" />
        </mxCell>
        <mxCell id="RAm_5Ladcyj3pS0U4x7B-21" style="edgeStyle=orthogonalEdgeStyle;html=1;labelBackgroundColor=none;endArrow=open;endSize=8;strokeColor=#ff0000;fontFamily=Times New Roman;fontSize=13;align=left;exitX=1;exitY=0.5;exitDx=0;exitDy=0;fontStyle=1;entryX=0;entryY=0.5;entryDx=0;entryDy=0;" edge="1" parent="1" source="RAm_5Ladcyj3pS0U4x7B-12" target="RAm_5Ladcyj3pS0U4x7B-23">
          <mxGeometry relative="1" as="geometry">
            <mxPoint x="299.5" y="570" as="sourcePoint" />
            <mxPoint x="470" y="550" as="targetPoint" />
            <Array as="points">
              <mxPoint x="350" y="560" />
            </Array>
          </mxGeometry>
        </mxCell>
        <mxCell id="RAm_5Ladcyj3pS0U4x7B-22" value="Fill Form" style="edgeLabel;html=1;align=center;verticalAlign=middle;resizable=0;points=[];fontFamily=Times New Roman;fontStyle=1;fontSize=13;" vertex="1" connectable="0" parent="RAm_5Ladcyj3pS0U4x7B-21">
          <mxGeometry x="-0.1833" y="-3" relative="1" as="geometry">
            <mxPoint x="11" y="-3" as="offset" />
          </mxGeometry>
        </mxCell>
        <mxCell id="RAm_5Ladcyj3pS0U4x7B-23" value="System Analyst" style="rounded=1;whiteSpace=wrap;html=1;arcSize=24;fillColor=#ffffc0;strokeColor=#ff0000;shadow=0;comic=0;labelBackgroundColor=none;fontFamily=Verdana;fontSize=12;fontColor=#000000;align=center;" vertex="1" parent="1">
          <mxGeometry x="570" y="530" width="120" height="60" as="geometry" />
        </mxCell>
        <mxCell id="RAm_5Ladcyj3pS0U4x7B-24" style="edgeStyle=orthogonalEdgeStyle;html=1;labelBackgroundColor=none;endArrow=open;endSize=8;strokeColor=#ff0000;fontFamily=Verdana;fontSize=12;align=left;exitX=0.25;exitY=1;exitDx=0;exitDy=0;entryX=0.5;entryY=0;entryDx=0;entryDy=0;" edge="1" parent="1" source="RAm_5Ladcyj3pS0U4x7B-23" target="RAm_5Ladcyj3pS0U4x7B-36">
          <mxGeometry relative="1" as="geometry">
            <mxPoint x="579.5" y="560" as="sourcePoint" />
            <mxPoint x="579.5" y="680" as="targetPoint" />
            <Array as="points" />
          </mxGeometry>
        </mxCell>
        <mxCell id="RAm_5Ladcyj3pS0U4x7B-26" style="edgeStyle=orthogonalEdgeStyle;html=1;labelBackgroundColor=none;endArrow=open;endSize=8;strokeColor=#ff0000;fontFamily=Verdana;fontSize=12;align=left;exitX=1;exitY=0;exitDx=0;exitDy=0;entryX=0.25;entryY=1;entryDx=0;entryDy=0;" edge="1" parent="1">
          <mxGeometry relative="1" as="geometry">
            <mxPoint x="340" y="540" as="sourcePoint" />
            <mxPoint x="500" y="400" as="targetPoint" />
            <Array as="points">
              <mxPoint x="340" y="460" />
              <mxPoint x="500" y="460" />
            </Array>
          </mxGeometry>
        </mxCell>
        <mxCell id="RAm_5Ladcyj3pS0U4x7B-27" value="Cancel or Failure" style="edgeLabel;html=1;align=center;verticalAlign=middle;resizable=0;points=[];fontStyle=1;fontFamily=Times New Roman;fontSize=13;" vertex="1" connectable="0" parent="RAm_5Ladcyj3pS0U4x7B-26">
          <mxGeometry x="-0.1833" y="-3" relative="1" as="geometry">
            <mxPoint x="27" y="-3" as="offset" />
          </mxGeometry>
        </mxCell>
        <mxCell id="RAm_5Ladcyj3pS0U4x7B-36" value="Admited" style="rounded=1;whiteSpace=wrap;html=1;arcSize=24;fillColor=#ffffc0;strokeColor=#ff0000;shadow=0;comic=0;labelBackgroundColor=none;fontFamily=Verdana;fontSize=12;fontColor=#000000;align=center;" vertex="1" parent="1">
          <mxGeometry x="540" y="695" width="120" height="60" as="geometry" />
        </mxCell>
        <mxCell id="RAm_5Ladcyj3pS0U4x7B-40" style="edgeStyle=orthogonalEdgeStyle;html=1;labelBackgroundColor=none;endArrow=open;endSize=8;strokeColor=#ff0000;fontFamily=Verdana;fontSize=12;align=left;exitX=1;exitY=0.5;exitDx=0;exitDy=0;entryX=0;entryY=0.5;entryDx=0;entryDy=0;" edge="1" parent="1" source="RAm_5Ladcyj3pS0U4x7B-36" target="RAm_5Ladcyj3pS0U4x7B-41">
          <mxGeometry relative="1" as="geometry">
            <mxPoint x="589.5" y="570" as="sourcePoint" />
            <mxPoint x="700" y="710" as="targetPoint" />
            <Array as="points" />
          </mxGeometry>
        </mxCell>
        <mxCell id="RAm_5Ladcyj3pS0U4x7B-45" value="End" style="edgeLabel;html=1;align=center;verticalAlign=middle;resizable=0;points=[];fontSize=13;fontFamily=Times New Roman;fontStyle=1" vertex="1" connectable="0" parent="RAm_5Ladcyj3pS0U4x7B-40">
          <mxGeometry x="0.24" y="-3" relative="1" as="geometry">
            <mxPoint x="99" y="37" as="offset" />
          </mxGeometry>
        </mxCell>
        <mxCell id="RAm_5Ladcyj3pS0U4x7B-41" value="" style="ellipse;html=1;shape=endState;fillColor=#000000;strokeColor=#ff0000;" vertex="1" parent="1">
          <mxGeometry x="860" y="710" width="30" height="30" as="geometry" />
        </mxCell>
        <mxCell id="RAm_5Ladcyj3pS0U4x7B-47" value="Start" style="edgeLabel;html=1;align=center;verticalAlign=middle;resizable=0;points=[];fontSize=13;fontFamily=Times New Roman;fontStyle=1" vertex="1" connectable="0" parent="1">
          <mxGeometry x="145" y="120" as="geometry" />
        </mxCell>
        <mxCell id="RAm_5Ladcyj3pS0U4x7B-48" style="edgeStyle=orthogonalEdgeStyle;html=1;labelBackgroundColor=none;endArrow=open;endSize=8;strokeColor=#ff0000;fontFamily=Verdana;fontSize=12;align=left;exitX=1;exitY=0.5;exitDx=0;exitDy=0;entryX=0;entryY=0.5;entryDx=0;entryDy=0;" edge="1" parent="1" target="RAm_5Ladcyj3pS0U4x7B-49" source="RAm_5Ladcyj3pS0U4x7B-23">
          <mxGeometry relative="1" as="geometry">
            <mxPoint x="859.5" y="380" as="sourcePoint" />
            <mxPoint x="859.5" y="500" as="targetPoint" />
            <Array as="points" />
          </mxGeometry>
        </mxCell>
        <mxCell id="RAm_5Ladcyj3pS0U4x7B-49" value="Denied" style="rounded=1;whiteSpace=wrap;html=1;arcSize=24;fillColor=#ffffc0;strokeColor=#ff0000;shadow=0;comic=0;labelBackgroundColor=none;fontFamily=Verdana;fontSize=12;fontColor=#000000;align=center;" vertex="1" parent="1">
          <mxGeometry x="800" y="530" width="120" height="60" as="geometry" />
        </mxCell>
        <mxCell id="RAm_5Ladcyj3pS0U4x7B-51" style="edgeStyle=orthogonalEdgeStyle;html=1;labelBackgroundColor=none;endArrow=open;endSize=8;strokeColor=#ff0000;fontFamily=Verdana;fontSize=12;align=left;entryX=0.5;entryY=0;entryDx=0;entryDy=0;" edge="1" parent="1" target="RAm_5Ladcyj3pS0U4x7B-41">
          <mxGeometry relative="1" as="geometry">
            <mxPoint x="875" y="590" as="sourcePoint" />
            <mxPoint x="905" y="620" as="targetPoint" />
            <Array as="points">
              <mxPoint x="875" y="600" />
              <mxPoint x="875" y="600" />
            </Array>
          </mxGeometry>
        </mxCell>
        <mxCell id="RAm_5Ladcyj3pS0U4x7B-56" value="Out of Service" style="rounded=1;whiteSpace=wrap;html=1;arcSize=24;fillColor=#ffffc0;strokeColor=#ff0000;shadow=0;comic=0;labelBackgroundColor=none;fontFamily=Verdana;fontSize=12;fontColor=#000000;align=center;" vertex="1" parent="1">
          <mxGeometry x="480" y="340" width="120" height="60" as="geometry" />
        </mxCell>
        <mxCell id="RAm_5Ladcyj3pS0U4x7B-57" style="edgeStyle=orthogonalEdgeStyle;html=1;labelBackgroundColor=none;endArrow=open;endSize=8;strokeColor=#ff0000;fontFamily=Verdana;fontSize=12;align=left;exitX=0.75;exitY=1;exitDx=0;exitDy=0;" edge="1" parent="1" source="RAm_5Ladcyj3pS0U4x7B-16" target="RAm_5Ladcyj3pS0U4x7B-23">
          <mxGeometry relative="1" as="geometry">
            <mxPoint x="579.5" y="250" as="sourcePoint" />
            <mxPoint x="579.5" y="390" as="targetPoint" />
            <Array as="points">
              <mxPoint x="720" y="500" />
              <mxPoint x="630" y="500" />
            </Array>
          </mxGeometry>
        </mxCell>
        <mxCell id="RAm_5Ladcyj3pS0U4x7B-58" value="Fill Form" style="edgeLabel;html=1;align=center;verticalAlign=middle;resizable=0;points=[];fontSize=13;fontFamily=Times New Roman;fontStyle=1" vertex="1" connectable="0" parent="RAm_5Ladcyj3pS0U4x7B-57">
          <mxGeometry x="-0.1714" y="4" relative="1" as="geometry">
            <mxPoint x="-4" y="-53" as="offset" />
          </mxGeometry>
        </mxCell>
        <mxCell id="RAm_5Ladcyj3pS0U4x7B-59" style="edgeStyle=orthogonalEdgeStyle;html=1;labelBackgroundColor=none;endArrow=open;endSize=8;strokeColor=#ff0000;fontFamily=Verdana;fontSize=12;align=left;entryX=0.5;entryY=0;entryDx=0;entryDy=0;exitX=0.25;exitY=1;exitDx=0;exitDy=0;" edge="1" parent="1" source="RAm_5Ladcyj3pS0U4x7B-16" target="RAm_5Ladcyj3pS0U4x7B-56">
          <mxGeometry relative="1" as="geometry">
            <mxPoint x="530" y="252" as="sourcePoint" />
            <mxPoint x="420" y="360" as="targetPoint" />
            <Array as="points">
              <mxPoint x="660" y="260" />
              <mxPoint x="540" y="260" />
            </Array>
          </mxGeometry>
        </mxCell>
        <mxCell id="RAm_5Ladcyj3pS0U4x7B-60" value="Cancel or Failure" style="edgeLabel;html=1;align=center;verticalAlign=middle;resizable=0;points=[];fontStyle=1;fontFamily=Times New Roman;fontSize=13;" vertex="1" connectable="0" parent="RAm_5Ladcyj3pS0U4x7B-59">
          <mxGeometry x="-0.1833" y="-3" relative="1" as="geometry">
            <mxPoint x="-3" y="3" as="offset" />
          </mxGeometry>
        </mxCell>
        <mxCell id="RAm_5Ladcyj3pS0U4x7B-61" style="edgeStyle=orthogonalEdgeStyle;html=1;labelBackgroundColor=none;endArrow=open;endSize=8;strokeColor=#ff0000;fontFamily=Verdana;fontSize=12;align=left;exitX=0.25;exitY=0;exitDx=0;exitDy=0;entryX=0.75;entryY=1;entryDx=0;entryDy=0;" edge="1" parent="1" source="RAm_5Ladcyj3pS0U4x7B-23" target="RAm_5Ladcyj3pS0U4x7B-56">
          <mxGeometry relative="1" as="geometry">
            <mxPoint x="360" y="510" as="sourcePoint" />
            <mxPoint x="420" y="360" as="targetPoint" />
            <Array as="points">
              <mxPoint x="550" y="470" />
              <mxPoint x="500" y="470" />
            </Array>
          </mxGeometry>
        </mxCell>
        <mxCell id="RAm_5Ladcyj3pS0U4x7B-62" value="Failure" style="edgeLabel;html=1;align=center;verticalAlign=middle;resizable=0;points=[];fontStyle=1;fontFamily=Times New Roman;fontSize=13;" vertex="1" connectable="0" parent="RAm_5Ladcyj3pS0U4x7B-61">
          <mxGeometry x="-0.1833" y="-3" relative="1" as="geometry">
            <mxPoint x="11" y="-3" as="offset" />
          </mxGeometry>
        </mxCell>
        <mxCell id="RAm_5Ladcyj3pS0U4x7B-63" style="edgeStyle=orthogonalEdgeStyle;html=1;labelBackgroundColor=none;endArrow=open;endSize=8;strokeColor=#ff0000;fontFamily=Verdana;fontSize=12;align=left;entryX=0;entryY=0.5;entryDx=0;entryDy=0;" edge="1" parent="1" target="RAm_5Ladcyj3pS0U4x7B-56">
          <mxGeometry relative="1" as="geometry">
            <mxPoint x="350" y="349.5" as="sourcePoint" />
            <mxPoint x="420" y="349.5" as="targetPoint" />
            <Array as="points">
              <mxPoint x="350" y="370" />
            </Array>
          </mxGeometry>
        </mxCell>
        <mxCell id="RAm_5Ladcyj3pS0U4x7B-66" value="Failure" style="edgeLabel;html=1;align=center;verticalAlign=middle;resizable=0;points=[];fontSize=13;fontFamily=Times New Roman;fontStyle=1" vertex="1" connectable="0" parent="RAm_5Ladcyj3pS0U4x7B-63">
          <mxGeometry x="-0.2093" y="-2" relative="1" as="geometry">
            <mxPoint x="21" y="-2" as="offset" />
          </mxGeometry>
        </mxCell>
      </root>
    </mxGraphModel>
  </diagram>
</mxfile>
